<svg xmlns="http://www.w3.org/2000/svg" width="1000" height="560" viewBox="0 0 1000 560">
<rect width="100%" height="100%" fill="#ffffff"/>
<text x="95" y="32" font-family="Arial, sans-serif" font-size="24" fill="#111827">Distribution of EXP4 Level 1 Causes by Age Group: Infants</text>
<line x1="95" y1="470" x2="700" y2="470" stroke="#e5e7eb" stroke-width="1"/>
<text x="83" y="474" text-anchor="end" font-family="Arial, sans-serif" font-size="14" fill="#374151">0%</text>
<line x1="95" y1="376.5" x2="700" y2="376.5" stroke="#e5e7eb" stroke-width="1"/>
<text x="83" y="380.5" text-anchor="end" font-family="Arial, sans-serif" font-size="14" fill="#374151">25%</text>
<line x1="95" y1="283.0" x2="700" y2="283.0" stroke="#e5e7eb" stroke-width="1"/>
<text x="83" y="287.0" text-anchor="end" font-family="Arial, sans-serif" font-size="14" fill="#374151">50%</text>
<line x1="95" y1="189.5" x2="700" y2="189.5" stroke="#e5e7eb" stroke-width="1"/>
<text x="83" y="193.5" text-anchor="end" font-family="Arial, sans-serif" font-size="14" fill="#374151">75%</text>
<line x1="95" y1="96.0" x2="700" y2="96.0" stroke="#e5e7eb" stroke-width="1"/>
<text x="83" y="100.0" text-anchor="end" font-family="Arial, sans-serif" font-size="14" fill="#374151">100%</text>
<line x1="95" y1="423.25" x2="700" y2="423.25" stroke="#f1f5f9" stroke-width="1"/>
<line x1="95" y1="329.75" x2="700" y2="329.75" stroke="#f1f5f9" stroke-width="1"/>
<line x1="95" y1="236.25" x2="700" y2="236.25" stroke="#f1f5f9" stroke-width="1"/>
<line x1="95" y1="142.75" x2="700" y2="142.75" stroke="#f1f5f9" stroke-width="1"/>
<rect x="95.0" y="457.79771615008156" width="605.0" height="12.202283849918432" fill="#9aa5b1"/>
<rect x="95.0" y="407.15823817292005" width="605.0" height="50.639477977161505" fill="#f97068"/>
<text x="397.5" y="436.4779771615008" text-anchor="middle" font-family="Arial, sans-serif" font-size="12" font-weight="700" fill="#111827">14%</text>
<rect x="95.0" y="383.973898858075" width="605.0" height="23.184339314845026" fill="#7fb800"/>
<text x="397.5" y="399.56606851549753" text-anchor="middle" font-family="Arial, sans-serif" font-size="12" font-weight="700" fill="#111827">6%</text>
<rect x="95.0" y="379.09298531810765" width="605.0" height="4.8809135399673735" fill="#b76ef0"/>
<rect x="95.0" y="359.5693311582381" width="605.0" height="19.523654159869494" fill="#08b8b8"/>
<rect x="95.0" y="95.99999999999994" width="605.0" height="263.5693311582382" fill="#f4b942"/>
<text x="397.5" y="231.78466557911904" text-anchor="middle" font-family="Arial, sans-serif" font-size="12" font-weight="700" fill="#ffffff">70%</text>
<text x="397.5" y="498" text-anchor="middle" font-family="Arial, sans-serif" font-size="14" fill="#1f2937">0</text>
<text x="397.5" y="530" text-anchor="middle" font-family="Arial, sans-serif" font-size="20" fill="#111827">Age group</text>
<text x="24" y="283.0" transform="rotate(-90 24,283.0)" text-anchor="middle" font-family="Arial, sans-serif" font-size="20" fill="#111827">Proportion</text>
<text x="735" y="144" font-family="Arial, sans-serif" font-size="18" fill="#111827">Level 1 cause</text>
<rect x="735" y="152" width="22" height="22" fill="#9aa5b1"/>
<text x="769" y="168" font-family="Arial, sans-serif" font-size="14" fill="#111827">Unspecifiable</text>
<rect x="735" y="180" width="22" height="22" fill="#f97068"/>
<text x="769" y="196" font-family="Arial, sans-serif" font-size="14" fill="#111827">Communicable disease</text>
<rect x="735" y="208" width="22" height="22" fill="#7fb800"/>
<text x="769" y="224" font-family="Arial, sans-serif" font-size="14" fill="#111827">Direct maternal cause</text>
<rect x="735" y="236" width="22" height="22" fill="#b76ef0"/>
<text x="769" y="252" font-family="Arial, sans-serif" font-size="14" fill="#111827">Non communicable disease</text>
<rect x="735" y="264" width="22" height="22" fill="#08b8b8"/>
<text x="769" y="280" font-family="Arial, sans-serif" font-size="14" fill="#111827">External cause</text>
<rect x="735" y="292" width="22" height="22" fill="#f4b942"/>
<text x="769" y="308" font-family="Arial, sans-serif" font-size="14" fill="#111827">Causes specific to infancy</text>
</svg>