<svg xmlns="http://www.w3.org/2000/svg" width="760" height="500" viewBox="0 0 760 500">
<rect width="100%" height="100%" fill="#fff"/>
<text x="92" y="34" font-family="Arial" font-size="21" font-weight="700">PCCC: Child VA</text>
<text x="92" y="58" font-family="Arial" font-size="12" fill="#52616b">One line per experiment; higher values indicate closer agreement.</text>
<line x1="92" y1="422.0" x2="610" y2="422.0" stroke="#e2e8f0"/>
<text x="78" y="426.0" text-anchor="end" font-family="Arial" font-size="11">0.33</text>
<line x1="92" y1="339.5" x2="610" y2="339.5" stroke="#e2e8f0"/>
<text x="78" y="343.5" text-anchor="end" font-family="Arial" font-size="11">0.48</text>
<line x1="92" y1="257.0" x2="610" y2="257.0" stroke="#e2e8f0"/>
<text x="78" y="261.0" text-anchor="end" font-family="Arial" font-size="11">0.63</text>
<line x1="92" y1="174.5" x2="610" y2="174.5" stroke="#e2e8f0"/>
<text x="78" y="178.5" text-anchor="end" font-family="Arial" font-size="11">0.78</text>
<line x1="92" y1="92.0" x2="610" y2="92.0" stroke="#e2e8f0"/>
<text x="78" y="96.0" text-anchor="end" font-family="Arial" font-size="11">0.93</text>
<text x="92.0" y="456" text-anchor="middle" font-family="Arial" font-size="13">Level 1</text>
<text x="351.0" y="456" text-anchor="middle" font-family="Arial" font-size="13">Level 2</text>
<text x="610.0" y="456" text-anchor="middle" font-family="Arial" font-size="13">Level 3</text>
<path d="M 92.0 135.9 L 351.0 211.0 L 610.0 337.8" fill="none" stroke="#2563eb" stroke-width="2.8"/>
<circle cx="92.0" cy="135.9" r="5" fill="#2563eb"/>
<circle cx="351.0" cy="211.0" r="5" fill="#2563eb"/>
<circle cx="610.0" cy="337.8" r="5" fill="#2563eb"/>
<path d="M 92.0 162.7 L 351.0 247.9 L 610.0 378.1" fill="none" stroke="#d97706" stroke-width="2.8"/>
<circle cx="92.0" cy="162.7" r="5" fill="#d97706"/>
<circle cx="351.0" cy="247.9" r="5" fill="#d97706"/>
<circle cx="610.0" cy="378.1" r="5" fill="#d97706"/>
<path d="M 92.0 180.3 L 351.0 254.1 L 610.0 364.1" fill="none" stroke="#059669" stroke-width="2.8"/>
<circle cx="92.0" cy="180.3" r="5" fill="#059669"/>
<circle cx="351.0" cy="254.1" r="5" fill="#059669"/>
<circle cx="610.0" cy="364.1" r="5" fill="#059669"/>
<path d="M 92.0 164.8 L 351.0 241.8 L 610.0 369.6" fill="none" stroke="#dc2626" stroke-width="2.8"/>
<circle cx="92.0" cy="164.8" r="5" fill="#dc2626"/>
<circle cx="351.0" cy="241.8" r="5" fill="#dc2626"/>
<circle cx="610.0" cy="369.6" r="5" fill="#dc2626"/>
<text x="26" y="257.0" transform="rotate(-90 26 257.0)" text-anchor="middle" font-family="Arial" font-size="14" font-weight="700">Score</text>
<line x1="642" y1="110" x2="670" y2="110" stroke="#2563eb" stroke-width="3"/>
<text x="680" y="114" font-family="Arial" font-size="12">EXP1</text>
<line x1="642" y1="142" x2="670" y2="142" stroke="#d97706" stroke-width="3"/>
<text x="680" y="146" font-family="Arial" font-size="12">EXP2</text>
<line x1="642" y1="174" x2="670" y2="174" stroke="#059669" stroke-width="3"/>
<text x="680" y="178" font-family="Arial" font-size="12">EXP3</text>
<line x1="642" y1="206" x2="670" y2="206" stroke="#dc2626" stroke-width="3"/>
<text x="680" y="210" font-family="Arial" font-size="12">EXP4</text>
</svg>